<svg width="24" height="24" viewBox="0 0 24 24" fill="none" xmlns="http://www.w3.org/2000/svg">
<path d="M12.4755 3.08156L13.9941 7.75532C14.1949 8.37336 14.7709 8.7918 15.4207 8.7918H20.335C20.8194 8.7918 21.0207 9.4116 20.6289 9.6963L16.6531 12.5848C16.1274 12.9668 15.9074 13.6439 16.1082 14.2619L17.6268 18.9357C17.7765 19.3963 17.2493 19.7794 16.8574 19.4947L12.8817 16.6061C12.3559 16.2242 11.6441 16.2242 11.1183 16.6061L7.14258 19.4947C6.75073 19.7794 6.22349 19.3963 6.37316 18.9357L7.89176 14.2619C8.09257 13.6439 7.87258 12.9668 7.34685 12.5848L3.37111 9.6963C2.97926 9.4116 3.18064 8.7918 3.66501 8.7918H8.57929C9.22913 8.7918 9.80506 8.37335 10.0059 7.75532L11.5245 3.08156C11.6741 2.6209 12.3259 2.62091 12.4755 3.08156Z" fill="#323232" stroke="#323232"/>
</svg>
